<mxfile host="Electron" agent="Mozilla/5.0 (X11; Linux x86_64) AppleWebKit/537.36 (KHTML, like Gecko) draw.io/24.7.17 Chrome/128.0.6613.36 Electron/32.0.1 Safari/537.36" version="24.7.17">
  <diagram name="Page-1" id="UyvtKlIleCufxp017ZWM">
    <mxGraphModel dx="2234" dy="1241" grid="0" gridSize="10" guides="1" tooltips="1" connect="1" arrows="1" fold="1" page="0" pageScale="1" pageWidth="850" pageHeight="1100" math="0" shadow="0">
      <root>
        <mxCell id="0" />
        <mxCell id="1" parent="0" />
        <mxCell id="0e5YO-FkRsQSiAICMiLW-1" value="&lt;font style=&quot;font-size: 13px;&quot;&gt;M칩dulo de Chamadas&lt;/font&gt;" style="swimlane;whiteSpace=wrap;html=1;startSize=30;" parent="1" vertex="1">
          <mxGeometry x="-350" y="-109" width="421" height="589" as="geometry" />
        </mxCell>
        <mxCell id="0e5YO-FkRsQSiAICMiLW-2" value="UC-10&lt;br style=&quot;font-size: 14px;&quot;&gt;Chamar Elevador" style="ellipse;whiteSpace=wrap;html=1;fontSize=14;fontStyle=0" parent="0e5YO-FkRsQSiAICMiLW-1" vertex="1">
          <mxGeometry x="114" y="69" width="194" height="87" as="geometry" />
        </mxCell>
        <mxCell id="0e5YO-FkRsQSiAICMiLW-3" value="UC-11&lt;div&gt;Visualizar Sentido do&lt;/div&gt;&lt;div&gt;Elevador&lt;/div&gt;" style="ellipse;whiteSpace=wrap;html=1;fontSize=14;fontStyle=0" parent="0e5YO-FkRsQSiAICMiLW-1" vertex="1">
          <mxGeometry x="113" y="199" width="195" height="87" as="geometry" />
        </mxCell>
        <mxCell id="0e5YO-FkRsQSiAICMiLW-4" value="UC-12&lt;div&gt;Visualizar Pr칩ximas&lt;/div&gt;&lt;div&gt;Paradas&lt;/div&gt;" style="ellipse;whiteSpace=wrap;html=1;fontSize=14;fontStyle=0" parent="0e5YO-FkRsQSiAICMiLW-1" vertex="1">
          <mxGeometry x="114" y="322" width="195" height="87" as="geometry" />
        </mxCell>
        <mxCell id="0e5YO-FkRsQSiAICMiLW-5" value="UC-13&lt;div&gt;Visualizar Andar Atual&lt;/div&gt;" style="ellipse;whiteSpace=wrap;html=1;fontSize=14;fontStyle=0" parent="0e5YO-FkRsQSiAICMiLW-1" vertex="1">
          <mxGeometry x="112.5" y="452" width="195" height="87" as="geometry" />
        </mxCell>
        <mxCell id="0e5YO-FkRsQSiAICMiLW-8" style="edgeStyle=none;shape=connector;curved=0;rounded=1;orthogonalLoop=1;jettySize=auto;html=1;entryX=1;entryY=0.5;entryDx=0;entryDy=0;strokeColor=default;align=center;verticalAlign=middle;fontFamily=Helvetica;fontSize=12;fontColor=default;labelBackgroundColor=default;startSize=8;endArrow=classic;endSize=8;" parent="1" source="0e5YO-FkRsQSiAICMiLW-10" target="0e5YO-FkRsQSiAICMiLW-2" edge="1">
          <mxGeometry relative="1" as="geometry">
            <Array as="points">
              <mxPoint x="20" y="60" />
              <mxPoint x="20" y="4" />
            </Array>
          </mxGeometry>
        </mxCell>
        <mxCell id="0e5YO-FkRsQSiAICMiLW-9" style="edgeStyle=none;shape=connector;curved=0;rounded=1;orthogonalLoop=1;jettySize=auto;html=1;entryX=1;entryY=0.5;entryDx=0;entryDy=0;strokeColor=default;align=center;verticalAlign=middle;fontFamily=Helvetica;fontSize=12;fontColor=default;labelBackgroundColor=default;startSize=8;endArrow=classic;endSize=8;" parent="1" source="0e5YO-FkRsQSiAICMiLW-10" target="0e5YO-FkRsQSiAICMiLW-3" edge="1">
          <mxGeometry relative="1" as="geometry">
            <Array as="points">
              <mxPoint x="20" y="60" />
              <mxPoint x="20" y="134" />
            </Array>
          </mxGeometry>
        </mxCell>
        <mxCell id="0e5YO-FkRsQSiAICMiLW-31" style="edgeStyle=none;shape=connector;curved=0;rounded=1;orthogonalLoop=1;jettySize=auto;html=1;entryX=1;entryY=0.5;entryDx=0;entryDy=0;strokeColor=default;align=center;verticalAlign=middle;fontFamily=Helvetica;fontSize=12;fontColor=default;labelBackgroundColor=default;startSize=8;endArrow=classic;endSize=8;" parent="1" source="0e5YO-FkRsQSiAICMiLW-10" target="0e5YO-FkRsQSiAICMiLW-4" edge="1">
          <mxGeometry relative="1" as="geometry">
            <Array as="points">
              <mxPoint x="20" y="60" />
              <mxPoint x="20" y="257" />
            </Array>
          </mxGeometry>
        </mxCell>
        <mxCell id="0e5YO-FkRsQSiAICMiLW-32" style="edgeStyle=none;shape=connector;curved=0;rounded=1;orthogonalLoop=1;jettySize=auto;html=1;entryX=1;entryY=0.5;entryDx=0;entryDy=0;strokeColor=default;align=center;verticalAlign=middle;fontFamily=Helvetica;fontSize=12;fontColor=default;labelBackgroundColor=default;startSize=8;endArrow=classic;endSize=8;" parent="1" source="0e5YO-FkRsQSiAICMiLW-10" target="0e5YO-FkRsQSiAICMiLW-5" edge="1">
          <mxGeometry relative="1" as="geometry">
            <Array as="points">
              <mxPoint x="20" y="60" />
              <mxPoint x="20" y="387" />
            </Array>
          </mxGeometry>
        </mxCell>
        <mxCell id="0e5YO-FkRsQSiAICMiLW-10" value="Usu치rio Master" style="shape=umlActor;verticalLabelPosition=bottom;verticalAlign=top;html=1;outlineConnect=0;" parent="1" vertex="1">
          <mxGeometry x="173" y="30" width="30" height="60" as="geometry" />
        </mxCell>
        <mxCell id="0e5YO-FkRsQSiAICMiLW-11" style="edgeStyle=none;shape=connector;curved=0;rounded=1;orthogonalLoop=1;jettySize=auto;html=1;entryX=0;entryY=0.5;entryDx=0;entryDy=0;strokeColor=default;align=center;verticalAlign=middle;fontFamily=Helvetica;fontSize=12;fontColor=default;labelBackgroundColor=default;startSize=8;endArrow=classic;endSize=8;" parent="1" source="0e5YO-FkRsQSiAICMiLW-13" target="0e5YO-FkRsQSiAICMiLW-2" edge="1">
          <mxGeometry relative="1" as="geometry">
            <Array as="points">
              <mxPoint x="-300" y="60" />
              <mxPoint x="-300" y="4" />
            </Array>
          </mxGeometry>
        </mxCell>
        <mxCell id="0e5YO-FkRsQSiAICMiLW-12" style="edgeStyle=none;shape=connector;curved=0;rounded=1;orthogonalLoop=1;jettySize=auto;html=1;entryX=0;entryY=0.5;entryDx=0;entryDy=0;strokeColor=default;align=center;verticalAlign=middle;fontFamily=Helvetica;fontSize=12;fontColor=default;labelBackgroundColor=default;startSize=8;endArrow=classic;endSize=8;" parent="1" source="0e5YO-FkRsQSiAICMiLW-13" target="0e5YO-FkRsQSiAICMiLW-3" edge="1">
          <mxGeometry relative="1" as="geometry">
            <Array as="points">
              <mxPoint x="-300" y="60" />
              <mxPoint x="-300" y="134" />
            </Array>
          </mxGeometry>
        </mxCell>
        <mxCell id="0e5YO-FkRsQSiAICMiLW-24" style="edgeStyle=none;shape=connector;curved=0;rounded=1;orthogonalLoop=1;jettySize=auto;html=1;entryX=0;entryY=0.5;entryDx=0;entryDy=0;strokeColor=default;align=center;verticalAlign=middle;fontFamily=Helvetica;fontSize=12;fontColor=default;labelBackgroundColor=default;startSize=8;endArrow=classic;endSize=8;" parent="1" source="0e5YO-FkRsQSiAICMiLW-13" target="0e5YO-FkRsQSiAICMiLW-4" edge="1">
          <mxGeometry relative="1" as="geometry">
            <Array as="points">
              <mxPoint x="-300" y="60" />
              <mxPoint x="-300" y="257" />
            </Array>
          </mxGeometry>
        </mxCell>
        <mxCell id="0e5YO-FkRsQSiAICMiLW-25" style="edgeStyle=none;shape=connector;curved=0;rounded=1;orthogonalLoop=1;jettySize=auto;html=1;exitX=0.5;exitY=0.5;exitDx=0;exitDy=0;exitPerimeter=0;entryX=0;entryY=0.5;entryDx=0;entryDy=0;strokeColor=default;align=center;verticalAlign=middle;fontFamily=Helvetica;fontSize=12;fontColor=default;labelBackgroundColor=default;startSize=8;endArrow=classic;endSize=8;" parent="1" source="0e5YO-FkRsQSiAICMiLW-13" target="0e5YO-FkRsQSiAICMiLW-5" edge="1">
          <mxGeometry relative="1" as="geometry">
            <Array as="points">
              <mxPoint x="-300" y="60" />
              <mxPoint x="-300" y="387" />
            </Array>
          </mxGeometry>
        </mxCell>
        <mxCell id="0e5YO-FkRsQSiAICMiLW-13" value="Usu치rio Admin" style="shape=umlActor;verticalLabelPosition=bottom;verticalAlign=top;html=1;outlineConnect=0;" parent="1" vertex="1">
          <mxGeometry x="-453" y="30" width="30" height="60" as="geometry" />
        </mxCell>
        <mxCell id="0e5YO-FkRsQSiAICMiLW-33" style="edgeStyle=none;shape=connector;curved=0;rounded=1;orthogonalLoop=1;jettySize=auto;html=1;entryX=1;entryY=0.5;entryDx=0;entryDy=0;strokeColor=default;align=center;verticalAlign=middle;fontFamily=Helvetica;fontSize=12;fontColor=default;labelBackgroundColor=default;startSize=8;endArrow=classic;endSize=8;" parent="1" source="0e5YO-FkRsQSiAICMiLW-15" target="0e5YO-FkRsQSiAICMiLW-5" edge="1">
          <mxGeometry relative="1" as="geometry">
            <Array as="points">
              <mxPoint x="20" y="298" />
              <mxPoint x="20" y="387" />
            </Array>
          </mxGeometry>
        </mxCell>
        <mxCell id="0e5YO-FkRsQSiAICMiLW-34" style="edgeStyle=none;shape=connector;curved=0;rounded=1;orthogonalLoop=1;jettySize=auto;html=1;entryX=1;entryY=0.5;entryDx=0;entryDy=0;strokeColor=default;align=center;verticalAlign=middle;fontFamily=Helvetica;fontSize=12;fontColor=default;labelBackgroundColor=default;startSize=8;endArrow=classic;endSize=8;" parent="1" source="0e5YO-FkRsQSiAICMiLW-15" target="0e5YO-FkRsQSiAICMiLW-4" edge="1">
          <mxGeometry relative="1" as="geometry">
            <Array as="points">
              <mxPoint x="20" y="298" />
              <mxPoint x="20" y="257" />
            </Array>
          </mxGeometry>
        </mxCell>
        <mxCell id="0e5YO-FkRsQSiAICMiLW-35" style="edgeStyle=none;shape=connector;curved=0;rounded=1;orthogonalLoop=1;jettySize=auto;html=1;entryX=1;entryY=0.5;entryDx=0;entryDy=0;strokeColor=default;align=center;verticalAlign=middle;fontFamily=Helvetica;fontSize=12;fontColor=default;labelBackgroundColor=default;startSize=8;endArrow=classic;endSize=8;" parent="1" source="0e5YO-FkRsQSiAICMiLW-15" target="0e5YO-FkRsQSiAICMiLW-3" edge="1">
          <mxGeometry relative="1" as="geometry">
            <Array as="points">
              <mxPoint x="20" y="298" />
              <mxPoint x="20" y="134" />
            </Array>
          </mxGeometry>
        </mxCell>
        <mxCell id="0e5YO-FkRsQSiAICMiLW-37" style="edgeStyle=none;shape=connector;curved=0;rounded=1;orthogonalLoop=1;jettySize=auto;html=1;entryX=1;entryY=0.5;entryDx=0;entryDy=0;strokeColor=default;align=center;verticalAlign=middle;fontFamily=Helvetica;fontSize=12;fontColor=default;labelBackgroundColor=default;startSize=8;endArrow=classic;endSize=8;" parent="1" source="0e5YO-FkRsQSiAICMiLW-15" target="0e5YO-FkRsQSiAICMiLW-2" edge="1">
          <mxGeometry relative="1" as="geometry">
            <Array as="points">
              <mxPoint x="20" y="298" />
              <mxPoint x="20" y="4" />
            </Array>
          </mxGeometry>
        </mxCell>
        <mxCell id="0e5YO-FkRsQSiAICMiLW-15" value="Usu치rio&lt;br&gt;&quot;dono de andar&quot;" style="shape=umlActor;verticalLabelPosition=bottom;verticalAlign=top;html=1;outlineConnect=0;" parent="1" vertex="1">
          <mxGeometry x="173" y="268" width="30" height="60" as="geometry" />
        </mxCell>
        <mxCell id="0e5YO-FkRsQSiAICMiLW-26" style="edgeStyle=none;shape=connector;curved=0;rounded=1;orthogonalLoop=1;jettySize=auto;html=1;strokeColor=default;align=center;verticalAlign=middle;fontFamily=Helvetica;fontSize=12;fontColor=default;labelBackgroundColor=default;startSize=8;endArrow=classic;endSize=8;entryX=0;entryY=0.5;entryDx=0;entryDy=0;" parent="1" source="0e5YO-FkRsQSiAICMiLW-22" target="0e5YO-FkRsQSiAICMiLW-5" edge="1">
          <mxGeometry relative="1" as="geometry">
            <mxPoint x="-300" y="298" as="targetPoint" />
            <Array as="points">
              <mxPoint x="-300" y="298" />
              <mxPoint x="-300" y="387" />
            </Array>
          </mxGeometry>
        </mxCell>
        <mxCell id="0e5YO-FkRsQSiAICMiLW-27" style="edgeStyle=none;shape=connector;curved=0;rounded=1;orthogonalLoop=1;jettySize=auto;html=1;entryX=0;entryY=0.5;entryDx=0;entryDy=0;strokeColor=default;align=center;verticalAlign=middle;fontFamily=Helvetica;fontSize=12;fontColor=default;labelBackgroundColor=default;startSize=8;endArrow=classic;endSize=8;" parent="1" source="0e5YO-FkRsQSiAICMiLW-22" target="0e5YO-FkRsQSiAICMiLW-4" edge="1">
          <mxGeometry relative="1" as="geometry">
            <Array as="points">
              <mxPoint x="-300" y="298" />
              <mxPoint x="-300" y="257" />
            </Array>
          </mxGeometry>
        </mxCell>
        <mxCell id="0e5YO-FkRsQSiAICMiLW-28" style="edgeStyle=none;shape=connector;curved=0;rounded=1;orthogonalLoop=1;jettySize=auto;html=1;entryX=0;entryY=0.5;entryDx=0;entryDy=0;strokeColor=default;align=center;verticalAlign=middle;fontFamily=Helvetica;fontSize=12;fontColor=default;labelBackgroundColor=default;startSize=8;endArrow=classic;endSize=8;" parent="1" source="0e5YO-FkRsQSiAICMiLW-22" target="0e5YO-FkRsQSiAICMiLW-3" edge="1">
          <mxGeometry relative="1" as="geometry">
            <Array as="points">
              <mxPoint x="-300" y="298" />
              <mxPoint x="-300" y="134" />
            </Array>
          </mxGeometry>
        </mxCell>
        <mxCell id="0e5YO-FkRsQSiAICMiLW-29" style="edgeStyle=none;shape=connector;curved=0;rounded=1;orthogonalLoop=1;jettySize=auto;html=1;entryX=0;entryY=0.5;entryDx=0;entryDy=0;strokeColor=default;align=center;verticalAlign=middle;fontFamily=Helvetica;fontSize=12;fontColor=default;labelBackgroundColor=default;startSize=8;endArrow=classic;endSize=8;" parent="1" source="0e5YO-FkRsQSiAICMiLW-22" target="0e5YO-FkRsQSiAICMiLW-2" edge="1">
          <mxGeometry relative="1" as="geometry">
            <Array as="points">
              <mxPoint x="-300" y="298" />
              <mxPoint x="-300" y="4" />
            </Array>
          </mxGeometry>
        </mxCell>
        <mxCell id="0e5YO-FkRsQSiAICMiLW-22" value="Usu치rio Comum" style="shape=umlActor;verticalLabelPosition=bottom;verticalAlign=top;html=1;outlineConnect=0;" parent="1" vertex="1">
          <mxGeometry x="-453" y="268" width="30" height="60" as="geometry" />
        </mxCell>
      </root>
    </mxGraphModel>
  </diagram>
</mxfile>
